<svg width="236" height="45" viewBox="0 0 236 45" fill="none" xmlns="http://www.w3.org/2000/svg">
<path d="M9.15995 5.1599C9.15995 5.3519 9.20795 5.5599 9.30395 5.7839L17.08 27.8159L25.144 4.5359L21.016 2.8559L21.304 1.7999H31.912L32.2 2.8559L29.56 3.9599C29.016 4.1839 28.6639 4.3919 28.504 4.5839C28.3759 4.7759 28.2 5.1759 27.976 5.7839L18.376 32.5199L15.448 33.3839L14.488 32.9999L4.16795 4.3919L0.42395 2.8559L0.71195 1.7999H12.472L12.76 2.8559L10.12 3.9599C9.47995 4.2159 9.15995 4.6159 9.15995 5.1599Z" fill="#141414"/>
<path d="M36.4093 29.2079V14.8559L33.0493 14.3279L32.7613 13.2719L39.3373 11.0159L40.2973 11.3999V30.4079L44.0893 31.9439L43.8013 32.9999H33.0493L32.7613 31.9439L34.9213 31.0319C35.4973 30.8079 35.8813 30.5679 36.0733 30.3119C36.2973 30.0559 36.4093 29.6879 36.4093 29.2079ZM38.0893 6.0239C37.3533 6.0239 36.7293 5.7839 36.2173 5.3039C35.7373 4.7919 35.4973 4.1679 35.4973 3.4319C35.4973 2.6639 35.7373 2.0239 36.2173 1.5119C36.7293 0.999897 37.3533 0.743896 38.0893 0.743896C38.8573 0.743896 39.4973 0.999897 40.0093 1.5119C40.5213 2.0239 40.7773 2.6639 40.7773 3.4319C40.7773 4.1679 40.5213 4.7919 40.0093 5.3039C39.4973 5.7839 38.8573 6.0239 38.0893 6.0239Z" fill="#141414"/>
<path d="M59.4291 14.2799C58.7251 14.0879 57.6051 13.9919 56.0691 13.9919C54.5331 13.9919 53.2211 14.2639 52.1331 14.8079C50.9171 16.3439 50.3091 18.5359 50.3091 21.3839C50.3091 24.2319 50.9811 26.4399 52.3251 28.0079C53.6691 29.5439 55.3971 30.3119 57.5091 30.3119C59.6211 30.3119 61.5891 29.8959 63.4131 29.0639L64.0851 30.3119C63.7011 30.6959 63.2371 31.0959 62.6931 31.5119C62.1491 31.8959 61.2691 32.3119 60.0531 32.7599C58.8691 33.1759 57.6211 33.3839 56.3091 33.3839C53.3331 33.3839 50.9171 32.4079 49.0611 30.4559C47.2051 28.4719 46.2771 25.7199 46.2771 22.1999C46.2771 18.6799 47.2851 15.9439 49.3011 13.9919C51.3491 12.0079 53.8291 11.0159 56.7411 11.0159C58.1811 11.0159 59.4611 11.2879 60.5811 11.8319C61.7011 12.3759 62.4531 12.8559 62.8371 13.2719C63.2211 13.6879 63.5251 14.1039 63.7491 14.5199L60.9651 18.2639L59.8131 17.9279L59.4291 14.2799Z" fill="#141414"/>
<path d="M69.3936 28.7279V13.7039H66.0336L65.7456 12.6479L69.3936 11.0159L71.5056 6.5519L73.2816 6.8879V11.3999H78.9936L79.5216 11.9759L79.0416 13.7999L73.2816 13.6079V27.6239C73.2816 28.8079 73.5216 29.6879 74.0016 30.2639C74.4816 30.8079 75.3296 31.0799 76.5456 31.0799H79.2816L79.5216 32.4239C77.5056 33.0639 75.7296 33.3839 74.1936 33.3839C72.6576 33.3839 71.4736 32.9519 70.6416 32.0879C69.8096 31.2239 69.3936 30.1039 69.3936 28.7279Z" fill="#141414"/>
<path d="M85.7946 21.6719C85.7946 27.4319 87.9866 30.3119 92.3706 30.3119C93.9706 30.3119 95.3466 30.0719 96.4986 29.5919C97.6826 28.0559 98.2746 25.7679 98.2746 22.7279C98.2746 16.9679 96.0826 14.0879 91.6986 14.0879C90.0986 14.0879 88.7226 14.3279 87.5706 14.8079C86.3866 16.3439 85.7946 18.6319 85.7946 21.6719ZM91.7466 33.3839C88.7706 33.3839 86.3546 32.4079 84.4986 30.4559C82.6426 28.5039 81.7146 25.7519 81.7146 22.1999C81.7146 18.6159 82.7386 15.8639 84.7866 13.9439C86.8346 11.9919 89.3466 11.0159 92.3226 11.0159C95.2986 11.0159 97.7146 11.9919 99.5706 13.9439C101.427 15.8959 102.355 18.6639 102.355 22.2479C102.355 25.7999 101.331 28.5519 99.2826 30.5039C97.2346 32.4239 94.7226 33.3839 91.7466 33.3839Z" fill="#141414"/>
<path d="M118.188 14.1839C117.356 14.1839 116.364 14.3119 115.212 14.5679C114.092 14.7919 113.308 14.9999 112.86 15.1919V30.4079L117.132 31.9439L116.844 32.9999H105.612L105.324 31.9439L107.484 31.0319C108.06 30.8079 108.444 30.5679 108.636 30.3119C108.86 30.0559 108.972 29.6879 108.972 29.2079V14.8559L105.612 14.3279L105.324 13.2719L111.516 11.0159L112.476 11.3999L112.668 13.1759L112.86 13.2719C113.308 12.9199 114.22 12.4879 115.596 11.9759C117.004 11.4319 118.044 11.1119 118.716 11.0159C119.388 11.2079 120.108 11.6239 120.876 12.2639C121.644 12.8719 122.172 13.4479 122.46 13.9919L119.34 18.1679L118.188 17.8319V14.1839Z" fill="#141414"/>
<path d="M161.768 5.7839V30.2639L165.896 31.9439L165.608 32.9999H153.848L153.56 31.9439L156.2 30.8399C156.776 30.6159 157.16 30.3759 157.352 30.1199C157.576 29.8639 157.688 29.4959 157.688 29.0159V18.4079H142.184V30.2639L146.312 31.9439L146.024 32.9999H134.264L133.976 31.9439L136.616 30.8399C137.192 30.6159 137.576 30.3759 137.768 30.1199C137.992 29.8639 138.104 29.4959 138.104 29.0159V4.5359L133.976 2.8559L134.264 1.7999H146.024L146.312 2.8559L143.672 3.9599C143.096 4.1839 142.696 4.4239 142.472 4.6799C142.28 4.9359 142.184 5.3039 142.184 5.7839V15.6719H157.688V4.5359L153.56 2.8559L153.848 1.7999H165.608L165.896 2.8559L163.256 3.9599C162.68 4.1839 162.28 4.4239 162.056 4.6799C161.864 4.9359 161.768 5.3039 161.768 5.7839Z" fill="#141414"/>
<path d="M177.412 33.3839C172.804 33.3839 170.5 30.9359 170.5 26.0399V14.8559L167.14 14.3279L166.852 13.2719L173.428 11.0159L174.388 11.3999V25.4639C174.388 27.0959 174.756 28.2799 175.492 29.0159C176.26 29.7199 177.476 30.0719 179.14 30.0719C180.804 30.0719 182.468 29.8639 184.132 29.4479V14.8559L180.772 14.3279L180.484 13.2719L187.06 11.0159L188.02 11.3999V30.4079L191.332 31.5599L191.044 32.6159L186.964 33.3839L186.004 32.9999L184.468 31.6559L184.228 31.5599C182.02 32.7759 179.748 33.3839 177.412 33.3839Z" fill="#141414"/>
<path d="M208.86 13.5119C210.172 14.9199 210.828 16.7599 210.828 19.0319C210.828 21.2719 210.028 23.1279 208.428 24.5999C206.86 26.0399 204.828 26.7599 202.332 26.7599C201.692 26.7599 201.084 26.7119 200.508 26.6159C199.644 27.4479 199.212 28.2799 199.212 29.1119C199.212 29.3999 199.436 29.5919 199.884 29.6879C200.332 29.7519 202.348 29.9439 205.932 30.2639C207.948 30.4559 209.612 31.0639 210.924 32.0879C212.268 33.1119 212.94 34.7119 212.94 36.8879C212.94 39.0639 211.98 40.8559 210.06 42.2639C208.172 43.7039 205.692 44.4239 202.62 44.4239C199.58 44.4239 197.228 43.8479 195.564 42.6959C193.9 41.5759 193.068 40.0719 193.068 38.1839C193.068 35.8799 194.252 33.9119 196.62 32.2799C196.108 31.7039 195.852 31.0799 195.852 30.4079C195.852 29.7039 196.076 28.9359 196.524 28.1039C196.972 27.2399 197.548 26.5039 198.252 25.8959C196.908 25.2559 195.852 24.3279 195.084 23.1119C194.348 21.8959 193.98 20.4879 193.98 18.8879C193.98 16.5199 194.764 14.5999 196.332 13.1279C197.9 11.6559 199.916 10.9199 202.38 10.9199C204.172 10.9199 205.756 11.3359 207.132 12.1679C208.444 10.5359 209.548 9.3839 210.444 8.7119L212.508 11.1119L212.22 11.8319C210.396 12.7279 209.276 13.2879 208.86 13.5119ZM198.54 33.3839C197.356 34.4719 196.764 35.7359 196.764 37.1759C196.764 38.6479 197.356 39.7679 198.54 40.5359C199.756 41.3039 201.388 41.6879 203.436 41.6879C205.516 41.6879 207.276 41.2559 208.716 40.3919C209.228 39.6559 209.484 38.6479 209.484 37.3679C209.484 36.0879 209.084 35.2399 208.284 34.8239C207.484 34.4079 206.3 34.1199 204.732 33.9599C202.588 33.7359 200.892 33.6239 199.644 33.6239C199.324 33.5919 198.956 33.5119 198.54 33.3839ZM197.724 18.9359C197.724 20.5039 198.14 21.7359 198.972 22.6319C199.804 23.4959 200.956 23.9279 202.428 23.9279C203.932 23.9279 205.116 23.6719 205.98 23.1599C206.236 22.8399 206.46 22.2319 206.652 21.3359C206.876 20.4399 206.988 19.5759 206.988 18.7439C206.988 17.1759 206.572 15.9599 205.74 15.0959C204.908 14.1999 203.74 13.7519 202.236 13.7519C200.764 13.7519 199.596 14.0079 198.732 14.5199C198.476 14.8399 198.236 15.4479 198.012 16.3439C197.82 17.2399 197.724 18.1039 197.724 18.9359Z" fill="#141414"/>
<path d="M219.295 21.6719C219.295 27.4319 221.487 30.3119 225.871 30.3119C227.471 30.3119 228.847 30.0719 229.999 29.5919C231.183 28.0559 231.775 25.7679 231.775 22.7279C231.775 16.9679 229.583 14.0879 225.199 14.0879C223.599 14.0879 222.223 14.3279 221.071 14.8079C219.887 16.3439 219.295 18.6319 219.295 21.6719ZM225.247 33.3839C222.271 33.3839 219.855 32.4079 217.999 30.4559C216.143 28.5039 215.215 25.7519 215.215 22.1999C215.215 18.6159 216.239 15.8639 218.287 13.9439C220.335 11.9919 222.847 11.0159 225.823 11.0159C228.799 11.0159 231.215 11.9919 233.071 13.9439C234.927 15.8959 235.855 18.6639 235.855 22.2479C235.855 25.7999 234.831 28.5519 232.783 30.5039C230.735 32.4239 228.223 33.3839 225.247 33.3839Z" fill="#141414"/>
</svg>
